#!OML:ASF F:\VICON\USERDATA\INSTALL\rory3\rory3.ASF
:FULLY-SPECIFIED
:DEGREES
101
root 0.1383078505736926 17.712333414414317 47.87705609967956 -4.621829061948151 -3.6722138337491703 -2.4135793172882787
lfemur -18.06817928558041 -7.8316834644244055 -15.810906922292023
ltibia 24.99326189250267
lfoot -5.198410308111399 -3.7636152467506805
ltoes -14.301166442531269
rfemur -15.701560397312491 -2.4393226597612268 23.03643817655277
rtibia 83.85088731739856
rfoot 12.538598179676011 0.10522651958122964
rtoes 14.278616537812857
lowerback 1.0 1.25514358066797 0.37964920434577915
upperback 1.0694085233287276 2.4878535412848306 0.3036531941907257
thorax -4.959764026302419 1.65990283378922 -0.3623561512258664
lowerneck -15.034245115750444 -2.679660816139359 -2.2266588520010093
upperneck 21.316743717745886 -3.576483984406326 0.11811534205226681
head 9.292404381041807 -1.8838441416749048 -0.2564359360758701
lclavicle 3.290414618043243e-15 -6.990706486430969e-15
lhumerus -37.20434304756872 9.123975260565846 79.82686683837304
lradius 11.562252020773869
lwrist -2.566477489310889
lhand -23.898583824919722 28.040926787888285
lfingers nan
lthumb 3.227963071728453 59.029173743575086
rclavicle 2.4611011604042812e-15 -6.6621952238075485e-15
rhumerus -24.953014352064827 -18.0277563390024 -81.28028185715567
rradius 26.886011521853668
rwrist 3.9687245048784274
rhand -18.922173475552512 1.0
rfingers nan
rthumb 7.15405364401842 -5.8260841305553255
102
root 0.15631098882110533 17.751133083817546 47.86704242328621 -4.915257401625323 -3.1891407688497946 -1.816406828977875
lfemur -15.134563685270145 -8.370438496269943 -16.652383276666693
ltibia 24.734831361668054
lfoot -6.178164388262428 -2.976302927605312
ltoes -13.974194305088995
rfemur -18.61582828145654 -4.7941695151442865 22.310041852514637
rtibia 89.24652574017297
rfoot 6.846927815329613 -3.367633497938335
rtoes 19.2902260498892
lowerback 1.0 0.865239465364229 -0.12175446496183462
upperback 1.1639283816587342 1.8520988729562744 0.3684566001115961
thorax -4.825439907138 1.4311174690111967 0.030673508828893636
lowerneck -14.793489287097065 -2.8022136541225082 -3.0549673009091407
upperneck 21.670076723036278 -3.609144508842885 0.7307692361468684
head 9.41594538254502 -1.9033595121258085 0.055841395426748514
lclavicle -9.836660202621455e-15 3.397690904246986e-14
lhumerus -36.47777267074853 7.394555826585324 80.66829114411432
lradius 12.617762546934646
lwrist -0.5680797361403074
lhand -30.371814201827878 25.04649911924779
lfingers nan
lthumb -2.9386390790676207 56.13998765590278
rclavicle -1.1002479063768375e-14 3.3795548285235864e-14
rhumerus -25.474275717155038 -19.500547915056817 -80.85237611102694
rradius 24.72398828995714
rwrist 7.360729174091336
rhand -18.57362291854386 1.0
rfingers nan
rthumb 7.48951802846907 -5.483978054328755
103
root 0.15681359972590586 17.768221750535915 48.59384367843952 -5.001852746663042 -3.2189621705239633 -2.0472447955474826
lfemur -12.777402829428537 -7.546354708587896 -16.437754141603758
ltibia 24.45852325647614
lfoot -7.111206009721078 -2.4667352772956117
ltoes -13.009902025858834
rfemur -21.606379849677094 -5.07626177710295 23.363628765040215
rtibia 91.01003488124454
rfoot 1.442021597582528 -5.145094710501871
rtoes 17.299067407052988
lowerback 1.0 0.610079944032991 -0.2523227492082276
upperback 1.2515956097615895 1.433652226880059 0.687497851128025
thorax -4.630502493369932 1.3129599192984938 0.41096476137023974
lowerneck -14.443798713272466 -2.4073382690901286 -2.920630757822501
upperneck 21.861611125536445 -2.974990843993742 0.9337832923629126
head 9.403796992377707 -1.6455249872640754 0.17424661924045987
lclavicle -1.2353244813783352e-14 8.744183323951373e-15
lhumerus -35.64424416513072 7.40480028783195 80.39262016905627
lradius 14.042551857291329
lwrist -2.7548661149218474
lhand -26.645993657302714 22.49987340556801
lfingers nan
lthumb 0.6554997062060639 53.56126184712631
rclavicle -1.3824954367492171e-14 8.249142706630126e-15
rhumerus -26.52828200194695 -21.47813496521207 -80.37145612168713
rradius 23.521730843058148
rwrist 10.94619769853014
rhand -17.95303751204402 1.0
rfingers nan
rthumb 8.065203233520831 -9.233432203401689
104
root 0.17326008912598367 17.78109161929401 48.13616494789425 -5.273853512021429 -2.2616785955801237 -0.48485831261283496
lfemur -9.639632992663541 -7.886949140201168 -18.851714320264488
ltibia 23.393039190070393
lfoot -7.922448841858967 -1.832172552976984
ltoes -12.295983868746605
rfemur -23.18667810141253 -6.153377077092609 21.29170182116186
rtibia 89.48982298510727
rfoot -2.2146125217604427 -2.7499662062283745
rtoes 15.312674007541439
lowerback 1.0 0.16404844702545118 -1.9052937963910557
upperback 1.4360482172179787 0.6675996030504102 0.2702696235716018
thorax -3.948288166388416 0.9423634533710175 1.1679680704753697
lowerneck -14.759393088021673 -2.7033257578451564 -3.2066108921205574
upperneck 22.397074012946955 -3.2589744296536733 1.064188167287491
head 9.652625332418358 -1.7877608321649059 0.2600676136155308
lclavicle 1.0674898779083973e-14 2.3889253175068965e-14
lhumerus -34.089767175081796 5.637433395600375 80.96894361393096
lradius 15.155738708233791
lwrist -0.00580853194346842
lhand -25.96984666702604 19.023867454960758
lfingers nan
lthumb 1.3501073403213502 50.146944862531385
rclavicle 8.742608874037395e-15 2.3223402452178763e-14
rhumerus -27.233450660095365 -24.872010723933503 -78.93382425068235
rradius 21.58232826739692
rwrist 13.144160130099078
rhand -18.46723410531274 1.0
rfingers nan
rthumb 7.591058371874913 -6.359659895313399
105
root 0.15674139225110184 17.7630635764392 48.19839467821751 -4.952926923979769 -1.7554015825395015 -1.608931135959672
lfemur -7.853065381626063 -7.77891737983083 -17.75291578501569
ltibia 23.370734017771866
lfoot -8.882019357738242 -1.6284364006203966
ltoes -11.492110597063176
rfemur -25.3744746084461 -5.636686238858875 23.427284064203274
rtibia 85.00674556077377
rfoot -6.151780901524855 -1.6658742301309806
rtoes 11.95983152734073
lowerback 1.0 -0.2722908356523777 -1.0745037085363343
upperback 1.1026346367656337 0.10551107494493878 0.9866749519352754
thorax -4.649283350429956 0.6689578781417409 1.4282478725437548
lowerneck -14.881429569695332 -2.3025568335218085 -2.551668525898949
upperneck 22.489112576803713 -2.430904299329397 0.28335892586193945
head 9.651498157668016 -1.51530086417287 0.020257063256972047
lclavicle -2.903485301255662e-15 2.2182385464863665e-14
lhumerus -32.61968562431878 4.3907130101770155 81.29572526682405
lradius 16.678820469274363
lwrist 2.630368762272716
lhand -24.841991936157697 22.394173721598726
lfingers nan
lthumb 2.43567867743854 53.4642400297225
rclavicle -5.257425458116698e-15 2.1283666706082018e-14
rhumerus -28.773262270793147 -24.81634663400385 -78.0813415505923
rradius 21.454964927141
rwrist 11.336025957324495
rhand -17.654932758842108 1.0
rfingers nan
rthumb 8.372539446161776 -7.31963732019312
106
root 0.13676563154181842 17.73649570888923 49.22555054567281 -4.53195812991846 -1.3391061162021969 -1.0667412647935304
lfemur -6.483834857640569 -7.914382175369942 -18.14056377127795
ltibia 22.96552582986875
lfoot -9.78755107723233 -1.2672891956729562
ltoes -11.727085822333304
rfemur -27.481016476037986 -5.194766359806112 23.24442525762282
rtibia 78.22870373893691
rfoot -8.743358079731795 -1.5129585669317427
rtoes 8.400374574063832
lowerback 1.0 -0.5851065027152209 -1.8457254058151897
upperback 1.2762770395597884 -0.3755493882859038 1.1584270319242382
thorax -4.223311378666233 0.43926272601605276 2.097507144952222
lowerneck -15.499194750354249 -2.060011033658675 -2.656062142345516
upperneck 22.56531632751922 -1.9443859219741992 0.5813147194445482
head 9.811891726643788 -1.3007675874722786 0.17076913119399761
lclavicle -9.206228873832234e-15 2.847160692015593e-15
lhumerus -30.582411494271877 2.4232573686949492 81.77639317694886
lradius 17.408065266741726
lwrist 2.7498325879363903
lhand -30.317729450475962 19.46548802919641
lfingers nan
lthumb -2.9228158028971594 50.48676905048143
rclavicle -1.1430413660900027e-14 1.8500132827626738e-15
rhumerus -29.435846677448286 -24.203559324458226 -77.84246778565937
rradius 21.760866211169766
rwrist 11.103959123008579
rhand -18.46136121134787 1.0
rfingers nan
rthumb 7.597732373895465 -5.997948296979594
